<svg width="5" height="7" viewBox="0 0 5 7" fill="none" xmlns="http://www.w3.org/2000/svg">
<path d="M4.26905 3.05631L1.61905 0.406309C1.56095 0.347729 1.49182 0.301233 1.41566 0.269502C1.3395 0.237772 1.25781 0.221436 1.1753 0.221436C1.09279 0.221436 1.0111 0.237772 0.93494 0.269502C0.858777 0.301233 0.789652 0.347729 0.73155 0.406309C0.615143 0.523411 0.549805 0.681818 0.549805 0.846934C0.549805 1.01205 0.615143 1.17046 0.73155 1.28756L2.94405 3.50006L0.73155 5.71256C0.615143 5.82966 0.549805 5.98807 0.549805 6.15318C0.549805 6.3183 0.615143 6.47671 0.73155 6.59381C0.78995 6.65174 0.85921 6.69756 0.935359 6.72867C1.01151 6.75977 1.09305 6.77553 1.1753 6.77506C1.25755 6.77553 1.33909 6.75977 1.41524 6.72867C1.49139 6.69756 1.56065 6.65174 1.61905 6.59381L4.26905 3.94381C4.32763 3.88571 4.37413 3.81658 4.40586 3.74042C4.43759 3.66426 4.45392 3.58257 4.45392 3.50006C4.45392 3.41755 4.43759 3.33586 4.40586 3.2597C4.37413 3.18354 4.32763 3.11441 4.26905 3.05631Z" fill="#4E4E4E"/>
</svg>
