<svg width="223" height="144" viewBox="0 0 223 144" fill="none" xmlns="http://www.w3.org/2000/svg">
<g filter="url(#filter0_d_827_10531)">
<rect width="182" height="104" transform="translate(20.5996 19)" fill="white"/>
<rect width="150" height="84" transform="translate(36.5996 29)" fill="white"/>
<path fill-rule="evenodd" clip-rule="evenodd" d="M107.277 37.2025C111.29 36.6783 115.438 37.1736 119.195 38.6668C123.847 40.499 127.883 43.834 130.509 48.049C127.591 50.403 124.72 52.8123 121.832 55.1999C118.638 57.8472 115.445 60.4993 112.251 63.1467C111.64 63.6275 111.075 64.1758 110.433 64.611L110.404 64.6182C110.409 60.5474 110.404 56.4767 110.414 52.4035C110.399 52.2063 110.477 51.9515 110.263 51.8337C105.898 48.2222 101.55 44.5914 97.168 41.0016C100.17 38.9722 103.672 37.6714 107.277 37.2025Z" fill="#CD2F79"/>
<path fill-rule="evenodd" clip-rule="evenodd" d="M90.3143 48.0106L109.903 64.272C110.071 64.3778 110.197 64.611 110.407 64.6183L110.436 64.611L110.183 77.3811L133.769 57.9964L133.828 57.7848C133.901 57.9242 133.966 58.0733 133.969 58.2368C134.304 61.9084 133.769 65.6642 132.373 69.0857C130.964 72.5626 128.691 75.6932 125.813 78.1265C123.129 80.4108 119.918 82.0867 116.492 82.9811C112.049 84.1449 107.261 84.0054 102.903 82.5604C99.4408 81.423 96.2607 79.4682 93.6817 76.9219C91.0807 74.3563 89.0904 71.1872 87.942 67.7368C86.1707 62.4807 86.3727 56.6018 88.5211 51.4827C89.0174 50.2756 89.6354 49.1239 90.3143 48.0106Z" fill="#0C903F"/>
<path fill-rule="evenodd" clip-rule="evenodd" d="M84.0245 91.5385C85.0026 91.5385 85.9783 91.5337 86.9564 91.5385C86.9564 94.6595 86.9564 97.7805 86.9564 100.901C88.2143 100.894 89.4746 100.921 90.7301 100.887C90.7179 97.7709 90.7277 94.6547 90.7252 91.5385C91.6985 91.5361 92.6717 91.5337 93.6474 91.5385C93.6449 94.6595 93.6449 97.7805 93.6474 100.901C94.9028 100.901 96.1583 100.904 97.4138 100.899C97.4186 97.7781 97.4114 94.6571 97.4187 91.5361C98.3919 91.5361 99.3651 91.5361 100.336 91.5361C100.341 95.4337 100.336 99.3338 100.338 103.231C94.9004 103.227 89.4625 103.234 84.0245 103.227C84.0269 99.3314 84.0245 95.4337 84.0245 91.5385ZM60.7934 98.2325C60.7885 99.1222 60.7885 100.009 60.7934 100.899C62.207 100.894 63.6255 100.914 65.0391 100.889C65.4892 100.868 66.0975 100.81 66.2654 100.312C66.3895 99.8507 66.3943 99.3434 66.2581 98.8841C66.0683 98.3576 65.4357 98.2542 64.9394 98.2373C63.5574 98.2253 62.1754 98.2397 60.7934 98.2325ZM57.735 91.5385C61.2654 91.5385 64.7982 91.5361 68.3286 91.5385C68.0586 92.3151 67.7982 93.0942 67.5282 93.8708C65.2824 93.8708 63.0367 93.8708 60.7934 93.8708C60.7885 94.5441 60.7934 95.2173 60.7909 95.893C62.2727 95.9074 63.752 95.8906 65.2338 95.9026C66.2435 95.9291 67.3214 96.0998 68.1291 96.7466C68.8177 97.2876 69.151 98.1556 69.224 99.002C69.3068 99.9541 69.2143 100.978 68.6644 101.794C68.207 102.474 67.4333 102.885 66.6425 103.066C65.7593 103.282 64.8445 103.224 63.9418 103.231C61.8737 103.231 59.8055 103.231 57.7374 103.231C57.7326 99.3338 57.735 95.4361 57.735 91.5385ZM157.299 97.8574C157.299 98.8721 157.297 99.8868 157.299 100.901C158.586 100.894 159.871 100.916 161.158 100.889C161.657 100.875 162.294 100.736 162.458 100.195C162.591 99.6824 162.601 99.1198 162.453 98.6124C162.265 98.0378 161.599 97.8671 161.056 97.8574C159.803 97.8502 158.55 97.8526 157.299 97.8574ZM154.251 91.5313C155.265 91.5433 156.282 91.5337 157.299 91.5361C157.297 92.861 157.302 94.1882 157.297 95.5131C158.647 95.5275 159.998 95.5083 161.348 95.5227C162.377 95.5419 163.465 95.7511 164.277 96.4172C164.964 96.975 165.324 97.8358 165.414 98.6942C165.521 99.7065 165.426 100.798 164.852 101.671C164.36 102.426 163.516 102.892 162.645 103.082C162.027 103.231 161.387 103.239 160.754 103.231C158.584 103.231 156.416 103.231 154.243 103.231C154.248 99.3314 154.234 95.4313 154.251 91.5313ZM142.11 91.5337C145.767 91.5385 149.423 91.5337 153.078 91.5361C153.078 92.3151 153.078 93.0918 153.078 93.8708C151.822 93.8708 150.565 93.8684 149.309 93.8708C149.307 96.9894 149.309 100.11 149.309 103.229C148.292 103.229 147.273 103.229 146.253 103.229C146.251 100.11 146.253 96.9894 146.253 93.8708C145.136 93.8684 144.02 93.866 142.903 93.8708C142.633 93.0966 142.353 92.3224 142.11 91.5337ZM116.273 91.5409C119.523 91.5289 122.771 91.5409 126.022 91.5361C125.779 92.32 125.499 93.0942 125.234 93.8732C123.265 93.8732 121.297 93.8732 119.329 93.8732C119.329 94.5874 119.329 95.3015 119.331 96.0156C121.187 96.0156 123.042 96.0132 124.898 96.0156C124.898 96.7923 124.898 97.5689 124.898 98.3479C123.042 98.3479 121.187 98.3479 119.331 98.3479C119.331 99.1967 119.331 100.048 119.331 100.899C121.482 100.904 123.63 100.899 125.781 100.901C125.784 101.678 125.781 102.452 125.781 103.229C122.611 103.224 119.443 103.241 116.273 103.222C116.278 99.329 116.273 95.4361 116.273 91.5409ZM102.455 91.5409C103.475 91.5313 104.492 91.5361 105.511 91.5385C105.511 93.0317 105.511 94.5224 105.511 96.0132C107.375 96.0156 109.239 96.0132 111.105 96.0132C111.107 94.52 111.105 93.0293 111.105 91.5361C112.122 91.5337 113.141 91.5385 114.158 91.5337C114.166 95.4313 114.158 99.3314 114.161 103.229C113.141 103.229 112.124 103.229 111.105 103.229C111.097 101.601 111.117 99.971 111.095 98.3431C109.234 98.3503 107.37 98.3407 105.506 98.3479C105.509 99.971 105.501 101.594 105.511 103.217C104.494 103.239 103.477 103.217 102.46 103.229C102.443 99.3362 102.465 95.4385 102.455 91.5409ZM74.4722 97.9752C75.5914 97.9752 76.7131 97.9752 77.8323 97.9752C77.3651 96.5686 76.898 95.1644 76.4284 93.7602C76.2313 93.7578 76.0318 93.7554 75.8347 93.7554C75.3773 95.162 74.9272 96.5686 74.4722 97.9752ZM73.6741 91.5361C75.2021 91.5361 76.7301 91.5409 78.2605 91.5337C78.3676 91.5553 78.5671 91.4736 78.5987 91.6299C80.0123 95.4938 81.4114 99.365 82.8201 103.231C81.7423 103.229 80.6644 103.231 79.5841 103.231C79.2605 102.255 78.9296 101.284 78.6133 100.308C76.9856 100.298 75.3578 100.308 73.7301 100.303C73.4065 101.274 73.0999 102.255 72.7812 103.231C71.7447 103.234 70.7082 103.234 69.6717 103.231C71.005 99.3314 72.3384 95.4337 73.6741 91.5361ZM135.793 93.8492C135.788 96.208 135.791 98.5667 135.793 100.926C136.623 100.926 137.528 100.986 138.26 100.531C138.893 100.137 139.183 99.3963 139.307 98.6966C139.455 97.7564 139.448 96.785 139.268 95.8497C139.132 95.1741 138.808 94.4623 138.158 94.1329C137.428 93.7626 136.582 93.8612 135.793 93.8492ZM130.314 94.3469C129.538 95.0418 129.428 96.1575 129.392 97.1313C129.382 98.1941 129.426 99.3963 130.178 100.235C130.9 100.995 132.044 100.93 133.012 100.926C133.012 98.5667 133.012 96.208 133.012 93.8492C132.102 93.8636 131.063 93.7266 130.314 94.3469ZM133.012 90.2689C133.01 90.6585 133.012 91.048 133.007 91.4399C131.385 91.3726 129.633 91.6203 128.358 92.695C127.049 93.7674 126.535 95.5011 126.509 97.1289C126.441 98.9731 127.034 100.969 128.538 102.157C129.781 103.162 131.453 103.397 133.012 103.337C133.012 103.724 133.012 104.111 133.012 104.501C133.937 104.506 134.861 104.499 135.788 104.506C135.793 104.116 135.791 103.727 135.793 103.34C137.338 103.397 138.993 103.169 140.231 102.183C141.757 101.002 142.358 98.9899 142.29 97.1361C142.263 95.5011 141.742 93.7626 140.428 92.6878C139.153 91.6203 137.409 91.3798 135.793 91.4375C135.793 91.048 135.798 90.6561 135.786 90.2665C134.859 90.2713 133.934 90.2641 133.012 90.2689Z" fill="#626262"/>
</g>
<defs>
<filter id="filter0_d_827_10531" x="0.599609" y="0" width="222" height="144" filterUnits="userSpaceOnUse" color-interpolation-filters="sRGB">
<feFlood flood-opacity="0" result="BackgroundImageFix"/>
<feColorMatrix in="SourceAlpha" type="matrix" values="0 0 0 0 0 0 0 0 0 0 0 0 0 0 0 0 0 0 127 0" result="hardAlpha"/>
<feOffset dy="1"/>
<feGaussianBlur stdDeviation="10"/>
<feComposite in2="hardAlpha" operator="out"/>
<feColorMatrix type="matrix" values="0 0 0 0 0 0 0 0 0 0 0 0 0 0 0 0 0 0 0.05 0"/>
<feBlend mode="normal" in2="BackgroundImageFix" result="effect1_dropShadow_827_10531"/>
<feBlend mode="normal" in="SourceGraphic" in2="effect1_dropShadow_827_10531" result="shape"/>
</filter>
</defs>
</svg>
