<svg width="190" height="50" viewBox="0 0 190 50" fill="none" xmlns="http://www.w3.org/2000/svg">
<g clip-path="url(#clip0_2202_642)">
<path fill-rule="evenodd" clip-rule="evenodd" d="M19.584 9.93432L12.4769 30.6323H7.06073L-0.046875 9.93432H5.33249L9.8303 23.9658L14.3282 9.93432H19.584ZM51.6334 40.0175L48.5072 47.5202C48.3228 47.9568 48.1143 48.3013 47.8871 48.5531C47.6594 48.8044 47.4188 48.9961 47.1676 49.1274C46.9142 49.2565 46.6629 49.3449 46.4122 49.3878C46.161 49.4328 45.8969 49.4542 45.6195 49.4542C45.3298 49.4542 44.993 49.4477 44.6107 49.4349C44.2264 49.422 43.9709 49.4113 43.8399 49.3985V47.4147H43.9837C44.0222 47.4233 44.0805 47.4318 44.1596 47.4447C44.2392 47.4576 44.3403 47.4683 44.4627 47.4811C44.5632 47.4897 44.6728 47.4988 44.7888 47.5052C44.9069 47.5138 45.0144 47.5181 45.1111 47.5181C45.3902 47.5181 45.6564 47.4833 45.9055 47.4126C46.1546 47.3434 46.3219 47.2229 46.4053 47.0531L42.9381 40.0175H45.4799L47.4899 44.4238L49.1904 40.0175H51.6334ZM60.5921 49.4028H58.2347V45.9302C57.7905 46.0309 57.404 46.1086 57.0752 46.16C56.7492 46.2141 56.3199 46.2399 55.7917 46.2399C55.3881 46.2399 55.0123 46.1885 54.6643 46.0829C54.3163 45.9774 54.0073 45.8118 53.739 45.5836C53.4749 45.3533 53.2664 45.0672 53.1162 44.7275C52.9639 44.3874 52.889 43.9722 52.889 43.4858V40.0175H55.2459V42.2445C55.2459 42.6382 55.2593 42.95 55.2871 43.1761C55.3149 43.4038 55.3988 43.6234 55.5362 43.8324C55.6629 44.0215 55.8409 44.1656 56.0708 44.2625C56.3001 44.3595 56.6224 44.4066 57.0346 44.4066C57.1827 44.4066 57.3805 44.3959 57.6317 44.3745C57.8824 44.3552 58.0823 44.329 58.2347 44.299V40.0175H60.5921V49.4028ZM63.2746 49.4028V40.0175H69.6129V41.8116H65.6192V43.4515H69.3034V45.2456H65.6192V47.6081H69.6129V49.4028H63.2746ZM79.4751 46.4033C79.4751 46.8618 79.3869 47.2813 79.2132 47.6665C79.0389 48.0517 78.8005 48.3656 78.5001 48.6088C78.1371 48.8992 77.7485 49.1038 77.3321 49.2244C76.9135 49.3427 76.4046 49.4028 75.8059 49.4028H71.9516V40.0175H78.7663V41.8116H74.2963V43.542H75.8443C76.4067 43.542 76.9092 43.5827 77.3535 43.6641C77.7982 43.7461 78.1975 43.9266 78.5498 44.2047C78.8737 44.4559 79.1079 44.7726 79.2538 45.1513C79.4019 45.5322 79.4751 45.9495 79.4751 46.4033ZM77.053 46.4681C77.053 46.3133 77.0359 46.1665 77.0038 46.0267C76.9696 45.889 76.8964 45.7599 76.7825 45.6436C76.6687 45.53 76.512 45.4395 76.3148 45.3726C76.117 45.3061 75.8443 45.2718 75.4942 45.2718H74.2963V47.6601H75.4942C75.9796 47.6601 76.3597 47.5567 76.6366 47.3499C76.9135 47.1458 77.053 46.8511 77.053 46.4681ZM89.4512 49.4028H87.0938V45.2456H83.8987V49.4028H81.5412V40.0175H83.8987V43.4515H87.0938V40.0175H89.4512V49.4028ZM91.1335 49.4028L94.3002 40.0175H96.8678L100.035 49.4028H97.6151L97.0335 47.5052H94.0661L93.4866 49.4028H91.1335ZM96.5139 45.7883L95.5495 42.6747L94.5857 45.7883H96.5139ZM109 49.4028H106.655V45.956H105.785L103.432 49.4028H100.626L103.415 45.5081C102.842 45.2611 102.398 44.9124 102.086 44.4624C101.775 44.015 101.618 43.4343 101.618 42.724C101.618 42.2466 101.723 41.8293 101.936 41.472C102.147 41.1147 102.417 40.8243 102.743 40.5961C103.029 40.4005 103.374 40.2543 103.784 40.1595C104.192 40.0646 104.661 40.0175 105.189 40.0175H109V49.4028ZM106.655 44.2647V41.7345H105.899C105.534 41.7345 105.253 41.7452 105.056 41.7688C104.858 41.7923 104.667 41.8722 104.48 42.012C104.338 42.1175 104.229 42.2552 104.154 42.425C104.079 42.5949 104.04 42.7845 104.04 42.9907C104.04 43.204 104.081 43.3974 104.16 43.5677C104.24 43.7375 104.351 43.8774 104.493 43.9872C104.654 44.1141 104.841 44.1913 105.058 44.2197C105.274 44.2497 105.558 44.2647 105.912 44.2647H106.655ZM119.504 49.5833C118.1 49.5833 116.986 49.1574 116.161 48.3056C115.334 47.4533 114.922 46.257 114.922 44.712C114.922 43.2232 115.336 42.0377 116.163 41.1511C116.992 40.2672 118.106 39.8236 119.51 39.8236C119.882 39.8236 120.219 39.845 120.515 39.8863C120.814 39.9291 121.097 39.9875 121.37 40.0625C121.584 40.1273 121.816 40.2131 122.068 40.3229C122.319 40.4306 122.523 40.5254 122.677 40.6047V42.8445H122.439C122.325 42.7432 122.183 42.6254 122.012 42.4851C121.838 42.3452 121.644 42.2075 121.426 42.0741C121.209 41.9408 120.968 41.8266 120.706 41.7323C120.444 41.6397 120.169 41.5925 119.884 41.5925C119.545 41.5925 119.233 41.6461 118.95 41.7538C118.669 41.8593 118.398 42.0463 118.143 42.3088C117.909 42.5477 117.715 42.8723 117.567 43.2795C117.419 43.6861 117.344 44.1656 117.344 44.7184C117.344 45.3018 117.421 45.7925 117.576 46.1885C117.733 46.5843 117.934 46.9047 118.188 47.1479C118.431 47.3825 118.701 47.5524 119.001 47.6579C119.3 47.7635 119.601 47.8149 119.897 47.8149C120.208 47.8149 120.503 47.7635 120.784 47.6622C121.065 47.561 121.303 47.4468 121.494 47.322C121.705 47.1951 121.889 47.0638 122.048 46.9304C122.207 46.797 122.347 46.6786 122.463 46.5758H122.677V48.7787C122.506 48.8585 122.306 48.949 122.081 49.0519C121.855 49.1553 121.621 49.2415 121.382 49.3122C121.088 49.4006 120.816 49.467 120.56 49.5147C120.305 49.5597 119.953 49.5833 119.504 49.5833ZM124.814 49.4028V40.0175H131.153V41.8116H127.159V43.4515H130.843V45.2456H127.159V47.6081H131.153V49.4028H124.814ZM135.295 49.4028V41.8116H132.525V40.0175H140.422V41.8116H137.652V49.4028H135.295ZM149.617 46.4033C149.617 46.8618 149.529 47.2813 149.355 47.6665C149.181 48.0517 148.942 48.3656 148.64 48.6088C148.279 48.8992 147.89 49.1038 147.472 49.2244C147.053 49.3427 146.544 49.4028 145.943 49.4028H142.132V40.0175H144.49V43.542H145.986C146.536 43.542 147.034 43.5806 147.478 43.6577C147.923 43.7354 148.326 43.9181 148.691 44.2047C149.016 44.4559 149.249 44.7726 149.396 45.1513C149.544 45.5322 149.617 45.9495 149.617 46.4033ZM147.195 46.4681C147.195 46.3133 147.178 46.1665 147.145 46.0267C147.111 45.889 147.038 45.7599 146.924 45.6436C146.811 45.53 146.654 45.4395 146.456 45.3726C146.259 45.3061 145.986 45.2718 145.638 45.2718H144.49V47.6601H145.638C146.117 47.6601 146.495 47.5588 146.776 47.3542C147.055 47.15 147.195 46.8554 147.195 46.4681ZM85.9295 19.2445C86.1476 22.4369 84.987 25.5467 82.7274 27.8112C80.733 29.81 77.9778 31.0464 74.9351 31.0464C71.8918 31.0464 69.1372 29.81 67.1427 27.8112C64.8826 25.5467 63.7225 22.4369 63.9407 19.2445H68.5438C68.5438 21.3606 68.8389 22.9517 70.4153 24.5316C71.5721 25.6903 73.1699 26.4076 74.9351 26.4076C76.7002 26.4076 78.298 25.6903 79.4543 24.5316C81.0312 22.9517 81.3263 21.3606 81.3263 19.2445H85.9295ZM39.0523 16.4636C39.0523 17.4268 38.9011 18.3429 38.5932 19.2161C38.29 20.084 37.8496 20.8147 37.2765 21.3987C36.9264 21.7592 36.5383 22.0913 36.1165 22.3999C35.6953 22.7031 35.2313 22.964 34.725 23.1778C34.2134 23.3867 33.6639 23.5576 33.0673 23.676C32.4713 23.7944 31.8031 23.8565 31.0601 23.8565H28.3423V30.6323H23.1431V9.93432H31.1691C32.3622 9.93432 33.3897 10.0436 34.2562 10.2622C35.1222 10.4802 35.9038 10.822 36.6094 11.2961C37.3856 11.8136 37.987 12.5063 38.4135 13.3747C38.839 14.2383 39.0523 15.2679 39.0523 16.4636ZM33.7115 16.5917C33.7115 16.0083 33.5741 15.5101 33.2951 15.0874C33.0203 14.67 32.6889 14.3807 32.3002 14.2238C31.8127 14.0106 31.3439 13.8868 30.8944 13.8541C30.449 13.8204 29.8428 13.8065 29.0763 13.8065H28.3423V19.9843H28.7021C29.1896 19.9843 29.6536 19.9795 30.0845 19.9704C30.5202 19.9608 30.8991 19.9276 31.221 19.8756C31.4957 19.8279 31.7892 19.7374 32.1014 19.6051C32.4093 19.4674 32.6461 19.3201 32.8118 19.154C33.162 18.8128 33.3988 18.4565 33.5271 18.0863C33.65 17.7161 33.7115 17.2179 33.7115 16.5917ZM62.0296 30.6323H55.6939L49.9457 23.0304H48.1089V30.6323H42.9381V9.93432H51.2479C52.394 9.93432 53.3931 10.0055 54.2452 10.148C55.0979 10.2948 55.8837 10.5938 56.6032 11.0448C57.342 11.5195 57.9289 12.1173 58.3646 12.8432C58.8003 13.5692 59.0184 14.4943 59.0184 15.6145C59.0184 17.1992 58.6629 18.4801 57.9476 19.4674C57.2329 20.4542 56.2814 21.2374 55.0834 21.8208L62.0296 30.6323ZM53.677 16.2547C53.677 15.7329 53.5776 15.2872 53.3787 14.9122C53.1798 14.5372 52.8532 14.2431 52.394 14.039C52.0717 13.9013 51.7119 13.8161 51.3142 13.7781C50.9165 13.74 50.4241 13.7213 49.8372 13.7213H48.1089V19.3013H49.586C50.306 19.3013 50.9165 19.2585 51.4184 19.1685C51.9204 19.0827 52.3465 18.8931 52.6966 18.6033C53.0286 18.3472 53.2744 18.0343 53.4354 17.6738C53.5963 17.3133 53.677 16.8386 53.677 16.2547ZM108.418 29.4462C107.514 29.8164 106.334 30.1796 104.886 30.5326C103.443 30.8846 102.012 31.0592 100.606 31.0592C97.3622 31.0592 94.7712 30.1191 92.8451 28.2409C90.9191 26.3632 89.9521 23.7001 89.9521 20.2501C89.9521 16.9999 90.9207 14.3995 92.8451 12.4447C94.7728 10.4872 97.4098 9.50732 100.757 9.50732C102.49 9.50732 103.892 9.6734 104.976 10.0007C106.06 10.3286 107.178 10.7791 108.333 11.3438V16.1979H107.86C107.614 16.0034 107.253 15.7281 106.784 15.3724C106.316 15.0167 105.86 14.7124 105.417 14.4611C104.901 14.1686 104.298 13.9104 103.617 13.6972C102.941 13.4856 102.22 13.3795 101.458 13.3795C100.573 13.3795 99.7576 13.5188 99.029 13.7968C98.2966 14.0765 97.6407 14.5002 97.0688 15.0783C96.5208 15.6322 96.0905 16.3452 95.7714 17.1992C95.4533 18.0515 95.2929 19.0447 95.2929 20.1788C95.2929 22.604 95.9002 24.3933 97.1115 25.5456C98.3229 26.698 99.9805 27.2728 102.083 27.2728C102.267 27.2728 102.487 27.2669 102.736 27.2589C102.986 27.2498 103.205 27.2348 103.39 27.216V23.1445H99.384V19.2445H108.418V29.4462ZM133.066 30.6323H126.731L120.983 23.0304H119.146V30.6323H113.975V9.93432H122.285C123.431 9.93432 124.431 10.0045 125.282 10.148C126.134 10.2916 126.924 10.5911 127.64 11.0448C128.38 11.5141 128.966 12.1173 129.401 12.8432C129.837 13.5692 130.055 14.4943 130.055 15.6145C130.055 17.1992 129.7 18.4801 128.985 19.4674C128.27 20.4542 127.318 21.2374 126.12 21.8208L133.066 30.6323ZM124.714 16.2547C124.714 15.7329 124.614 15.2867 124.416 14.9122C124.217 14.5372 123.891 14.2393 123.431 14.039C123.111 13.8997 122.748 13.8151 122.352 13.7781C121.955 13.7411 121.459 13.7213 120.874 13.7213H119.146V19.3013H120.623C121.343 19.3013 121.954 19.2553 122.455 19.1685C122.956 19.0817 123.38 18.8862 123.734 18.6033C124.06 18.3429 124.312 18.0338 124.473 17.6738C124.634 17.3133 124.714 16.8386 124.714 16.2547ZM135.642 30.6323V9.93432H149.62V13.8916H140.813V17.5077H148.938V21.4651H140.813V26.675H149.62V30.6323H135.642ZM161.166 31.0025C159.59 31.0025 158.202 30.8471 157.004 30.5423C155.808 30.2375 154.699 29.8587 153.671 29.4033V24.4828H154.14C155.177 25.3608 156.314 26.038 157.559 26.5089C158.802 26.9792 160.011 27.216 161.185 27.216C161.479 27.216 161.868 27.1833 162.35 27.1212C162.836 27.058 163.224 26.9471 163.52 26.8126C163.876 26.6508 164.188 26.436 164.433 26.158C164.682 25.874 164.807 25.5028 164.807 25.0426C164.807 24.5256 164.603 24.1014 164.197 23.7756C163.796 23.4537 163.305 23.2153 162.743 23.0685C162.044 22.8858 161.294 22.7069 160.494 22.5419C159.695 22.3769 158.948 22.1722 158.259 21.9301C156.659 21.3681 155.515 20.6058 154.822 19.6522C154.13 18.7008 153.785 17.5029 153.785 16.065C153.785 14.129 154.604 12.5604 156.237 11.3625C157.873 10.162 159.917 9.56412 162.364 9.56412C163.595 9.56412 164.819 9.6884 166.034 9.93912C167.245 10.1888 168.335 10.5273 169.296 10.9548V15.6852H168.842C168.075 15.0306 167.14 14.4788 166.038 14.0293C164.937 13.5799 163.804 13.3506 162.639 13.3506C162.189 13.3506 161.781 13.3827 161.422 13.4459C161.063 13.5091 160.683 13.6399 160.285 13.8204C159.966 13.965 159.685 14.1836 159.453 14.4708C159.218 14.7601 159.097 15.0831 159.097 15.4431C159.097 15.9702 159.283 16.3902 159.656 16.701C160.028 17.009 160.755 17.2945 161.824 17.541C162.513 17.6995 163.185 17.8479 163.827 17.9963C164.466 18.1442 165.155 18.3472 165.882 18.6086C167.312 19.1229 168.378 19.8252 169.074 20.7012C169.767 21.5738 170.12 22.7321 170.12 24.1646C170.12 26.2244 169.314 27.8771 167.7 29.128C166.092 30.3746 163.912 31.0025 161.166 31.0025ZM180.819 31.0025C179.243 31.0025 177.854 30.8471 176.657 30.5423C175.462 30.2375 174.351 29.8587 173.324 29.4033V24.4828H173.793C174.83 25.3608 175.967 26.038 177.211 26.5089C178.455 26.9792 179.664 27.216 180.838 27.216C181.132 27.216 181.522 27.1833 182.003 27.1212C182.49 27.058 182.877 26.9471 183.172 26.8126C183.528 26.6508 183.842 26.4365 184.086 26.158C184.336 25.8746 184.46 25.5028 184.46 25.0426C184.46 24.5256 184.256 24.1014 183.85 23.7756C183.449 23.4537 182.958 23.2153 182.396 23.0685C181.697 22.8858 180.946 22.7069 180.147 22.5419C179.348 22.3769 178.601 22.1722 177.912 21.9301C176.312 21.3681 175.168 20.6063 174.474 19.6522C173.783 18.7013 173.437 17.5029 173.437 16.065C173.437 14.129 174.257 12.5604 175.89 11.3625C177.526 10.162 179.569 9.56412 182.017 9.56412C183.248 9.56412 184.472 9.6884 185.687 9.93912C186.898 10.1888 187.988 10.5273 188.949 10.9548V15.6852H188.494C187.727 15.0306 186.793 14.4788 185.692 14.0293C184.589 13.5799 183.457 13.3506 182.292 13.3506C181.842 13.3506 181.433 13.3827 181.075 13.4459C180.716 13.5091 180.336 13.6399 179.939 13.8204C179.619 13.965 179.337 14.1836 179.105 14.4708C178.872 14.7601 178.75 15.0831 178.75 15.4431C178.75 15.9702 178.935 16.3908 179.309 16.701C179.681 17.0095 180.408 17.2945 181.477 17.541C182.166 17.6995 182.838 17.8479 183.48 17.9963C184.118 18.1442 184.808 18.3472 185.535 18.6086C186.965 19.1229 188.03 19.8252 188.726 20.7012C189.42 21.5738 189.773 22.7321 189.773 24.1646C189.773 26.2244 188.966 27.8771 187.353 29.128C185.745 30.3746 183.565 31.0025 180.819 31.0025Z" fill="#004084"/>
<path fill-rule="evenodd" clip-rule="evenodd" d="M76.9669 0.811483V8.51109H78.7224V2.75797C82.7573 4.21603 85.7407 7.93079 86.1354 12.3629H63.735C64.127 7.96167 67.0709 4.26773 71.063 2.78859V8.51109H72.8185V0.82717C74.1849 0.563754 75.5985 0.558854 76.9669 0.811483ZM61.7637 17.532H88.1068V14.1221H61.7637V17.532Z" fill="#EC650A"/>
</g>
<defs>
<clipPath id="clip0_2202_642">
<rect width="190" height="49" fill="white" transform="translate(0 0.5)"/>
</clipPath>
</defs>
</svg>
