<svg width="222" height="144" viewBox="0 0 222 144" fill="none" xmlns="http://www.w3.org/2000/svg">
<g filter="url(#filter0_d_827_10518)">
<rect width="182" height="104" transform="translate(20 19)" fill="white"/>
<path d="M80.416 62.2747H85.2147V75.5283H90.3558V79.7139H80.416V62.2747Z" fill="#231F20"/>
<path d="M92.668 72.5063V62.1383H97.5817V72.4065C97.5817 73.4763 97.7827 75.8618 100.389 75.8618C102.998 75.8618 103.199 73.4763 103.199 72.4065V62.1383H108.113V72.5063C108.113 74.3713 107.711 80.0392 100.389 80.0392C93.07 80.0392 92.668 74.3713 92.668 72.5063" fill="#231F20"/>
<path d="M111.765 62.2755H116.63V69.5988L121.869 62.2754H127.579L120.976 70.7195L127.752 79.7139H121.67L116.63 72.2153V79.7139H111.765V62.2755ZM149.835 62.2747H154.701V79.7131H149.835V62.2747ZM158.265 62.2755H163.13V75.5285H168.345V79.7139H158.265V62.2755Z" fill="#231F20"/>
<path d="M141.752 70.853C141.752 67.4177 139.621 65.7144 137.287 65.7144C134.953 65.7144 132.822 67.4177 132.822 70.853C132.822 74.2883 134.953 75.9916 137.287 75.9916C139.621 75.9916 141.752 74.2883 141.752 70.853ZM127.641 70.853C127.641 66.0954 130.721 61.4397 137.287 61.4397C143.856 61.4397 146.934 66.0954 146.934 70.853C146.934 75.6106 143.856 80.2663 137.287 80.2663C130.721 80.2663 127.641 75.6106 127.641 70.853Z" fill="#231F20"/>
<path d="M53.6553 60H76.5933V81.9886H53.6553V60Z" fill="#E22739"/>
<path d="M73.9982 64.0283L71.4006 68.1944C71.1169 68.6618 71.1594 69.0294 71.2911 69.3838L75.2355 79.3907H58.8996C57.4344 79.3907 56.2998 78.2236 56.2998 76.8326L56.2842 63.5121C56.3244 61.7911 58.8527 61.7624 58.8996 63.5055V75.9909C58.8952 76.3874 59.2458 76.8326 59.7081 76.8215H71.6731L68.5752 69.592C68.4948 69.3151 68.4389 69.0406 68.4389 68.7637C68.4389 68.4581 68.5752 67.9686 68.7784 67.5699L71.6217 62.9274C71.8317 62.511 72.256 62.2297 72.7608 62.2097C73.4688 62.1787 74.0741 62.6616 74.1054 63.408C74.1076 63.5564 74.0719 63.8821 73.9982 64.0283Z" fill="white"/>
<path d="M64.9879 72.4408V63.5059C64.9879 61.7628 67.5519 61.7495 67.581 63.5059V72.5383C67.581 74.6048 66.0242 75.9714 64.1168 75.9714C62.2116 75.9714 60.6504 74.5716 60.6504 72.5383V63.5059C60.6504 61.7628 63.2435 61.7628 63.2435 63.5059V72.4408C63.2435 73.6391 64.9879 73.7122 64.9879 72.4408Z" fill="white"/>
</g>
<defs>
<filter id="filter0_d_827_10518" x="0" y="0" width="222" height="144" filterUnits="userSpaceOnUse" color-interpolation-filters="sRGB">
<feFlood flood-opacity="0" result="BackgroundImageFix"/>
<feColorMatrix in="SourceAlpha" type="matrix" values="0 0 0 0 0 0 0 0 0 0 0 0 0 0 0 0 0 0 127 0" result="hardAlpha"/>
<feOffset dy="1"/>
<feGaussianBlur stdDeviation="10"/>
<feComposite in2="hardAlpha" operator="out"/>
<feColorMatrix type="matrix" values="0 0 0 0 0 0 0 0 0 0 0 0 0 0 0 0 0 0 0.05 0"/>
<feBlend mode="normal" in2="BackgroundImageFix" result="effect1_dropShadow_827_10518"/>
<feBlend mode="normal" in="SourceGraphic" in2="effect1_dropShadow_827_10518" result="shape"/>
</filter>
</defs>
</svg>
