<svg width="17" height="17" viewBox="0 0 17 17" fill="none" xmlns="http://www.w3.org/2000/svg">
<path d="M13.8712 15.3748C12.3051 16.9382 8.29449 15.4692 4.91318 12.0937C1.53187 8.71823 0.0603375 4.7145 1.62641 3.15112L2.65755 2.12175C3.36941 1.41112 4.54237 1.42991 5.27744 2.16371L6.87459 3.7581C7.60965 4.4919 7.62847 5.66284 6.91662 6.37347L6.69514 6.59456C6.3108 6.97824 6.2732 7.59719 6.63032 8.02921C6.97479 8.44593 7.34616 8.861 7.74881 9.26296C8.15147 9.66492 8.56726 10.0356 8.98469 10.3795C9.41746 10.736 10.0375 10.6985 10.4218 10.3148L10.6433 10.0937C11.3552 9.38309 12.5281 9.40188 13.2632 10.1357L14.8603 11.7301C15.5954 12.4639 15.6142 13.6348 14.9024 14.3454L13.8712 15.3748Z" stroke="#EC650A" stroke-width="1.5"/>
<path d="M12.7207 6.40066C12.5252 5.92454 12.2338 5.47846 11.8466 5.09186C11.4812 4.72709 11.0627 4.44753 10.616 4.25317" stroke="#EC650A" stroke-width="1.5" stroke-linecap="round"/>
<path d="M10.6163 1.53097C11.6858 1.91776 12.6893 2.53912 13.5467 3.39507C14.4256 4.2725 15.0576 5.30313 15.4427 6.40091" stroke="#EC650A" stroke-width="1.5" stroke-linecap="round"/>
</svg>
